<mxfile host="app.diagrams.net" agent="Mozilla/5.0 (Macintosh; Intel Mac OS X 10_15_7) AppleWebKit/537.36 (KHTML, like Gecko) Chrome/131.0.0.0 Safari/537.36" version="25.0.3">
  <diagram name="Page-1" id="pC4CkAca1cH_LA18q4E5">
    <mxGraphModel dx="586" dy="371" grid="1" gridSize="10" guides="1" tooltips="1" connect="1" arrows="1" fold="1" page="1" pageScale="1" pageWidth="1169" pageHeight="1654" math="0" shadow="0">
      <root>
        <mxCell id="0" />
        <mxCell id="1" parent="0" />
        <mxCell id="gDEl19BG6VwAShqC3G5s-33" value="" style="rounded=0;whiteSpace=wrap;html=1;fillColor=#fff2cc;strokeColor=#d6b656;" parent="1" vertex="1">
          <mxGeometry x="360" y="430" width="120" height="60" as="geometry" />
        </mxCell>
        <mxCell id="gDEl19BG6VwAShqC3G5s-1" value="" style="rounded=0;whiteSpace=wrap;html=1;fillColor=#f5f5f5;fontColor=#333333;strokeColor=#666666;" parent="1" vertex="1">
          <mxGeometry x="190" y="460" width="130" height="60" as="geometry" />
        </mxCell>
        <mxCell id="gDEl19BG6VwAShqC3G5s-2" value="AVLNode" style="ellipse;whiteSpace=wrap;html=1;fillColor=#f5f5f5;fontColor=#333333;strokeColor=#666666;" parent="1" vertex="1">
          <mxGeometry x="200" y="470" width="60" height="40" as="geometry" />
        </mxCell>
        <mxCell id="gDEl19BG6VwAShqC3G5s-4" value="Container" style="rounded=0;whiteSpace=wrap;html=1;align=left;fillColor=#fff2cc;strokeColor=#d6b656;" parent="1" vertex="1">
          <mxGeometry x="350" y="520" width="120" height="60" as="geometry" />
        </mxCell>
        <mxCell id="gDEl19BG6VwAShqC3G5s-5" value="root" style="rhombus;whiteSpace=wrap;html=1;fillColor=#fff2cc;strokeColor=#d6b656;" parent="1" vertex="1">
          <mxGeometry x="410" y="535" width="50" height="30" as="geometry" />
        </mxCell>
        <mxCell id="gDEl19BG6VwAShqC3G5s-6" value="" style="endArrow=classic;html=1;rounded=0;exitX=0.5;exitY=0;exitDx=0;exitDy=0;fillColor=#fff2cc;strokeColor=#d6b656;" parent="1" source="gDEl19BG6VwAShqC3G5s-5" edge="1">
          <mxGeometry width="50" height="50" relative="1" as="geometry">
            <mxPoint x="470" y="700" as="sourcePoint" />
            <mxPoint x="435" y="480" as="targetPoint" />
          </mxGeometry>
        </mxCell>
        <mxCell id="gDEl19BG6VwAShqC3G5s-7" value="&lt;font style=&quot;font-size: 9px;&quot;&gt;AVLNode&lt;/font&gt;" style="ellipse;whiteSpace=wrap;html=1;fillColor=#fff2cc;strokeColor=#d6b656;" parent="1" vertex="1">
          <mxGeometry x="405" y="440" width="75" height="40" as="geometry" />
        </mxCell>
        <mxCell id="gDEl19BG6VwAShqC3G5s-9" value="" style="ellipse;whiteSpace=wrap;html=1;" parent="1" vertex="1">
          <mxGeometry x="40" y="120" width="190" height="110" as="geometry" />
        </mxCell>
        <mxCell id="gDEl19BG6VwAShqC3G5s-10" value="left" style="rhombus;whiteSpace=wrap;html=1;" parent="1" vertex="1">
          <mxGeometry x="55" y="170" width="50" height="30" as="geometry" />
        </mxCell>
        <mxCell id="gDEl19BG6VwAShqC3G5s-11" value="" style="endArrow=classic;html=1;rounded=0;exitX=0.5;exitY=0;exitDx=0;exitDy=0;" parent="1" source="gDEl19BG6VwAShqC3G5s-10" edge="1">
          <mxGeometry width="50" height="50" relative="1" as="geometry">
            <mxPoint x="390" y="260" as="sourcePoint" />
            <mxPoint x="40" y="110" as="targetPoint" />
          </mxGeometry>
        </mxCell>
        <mxCell id="gDEl19BG6VwAShqC3G5s-12" value="AVLNode" style="ellipse;whiteSpace=wrap;html=1;" parent="1" vertex="1">
          <mxGeometry x="10" y="70" width="60" height="40" as="geometry" />
        </mxCell>
        <mxCell id="gDEl19BG6VwAShqC3G5s-13" value="right" style="rhombus;whiteSpace=wrap;html=1;" parent="1" vertex="1">
          <mxGeometry x="90" y="140" width="50" height="30" as="geometry" />
        </mxCell>
        <mxCell id="gDEl19BG6VwAShqC3G5s-14" value="AVLNode" style="ellipse;whiteSpace=wrap;html=1;" parent="1" vertex="1">
          <mxGeometry x="80" y="70" width="60" height="40" as="geometry" />
        </mxCell>
        <mxCell id="gDEl19BG6VwAShqC3G5s-15" value="" style="endArrow=classic;html=1;rounded=0;exitX=0.5;exitY=0;exitDx=0;exitDy=0;entryX=0.333;entryY=0.875;entryDx=0;entryDy=0;entryPerimeter=0;" parent="1" source="gDEl19BG6VwAShqC3G5s-13" target="gDEl19BG6VwAShqC3G5s-14" edge="1">
          <mxGeometry width="50" height="50" relative="1" as="geometry">
            <mxPoint x="390" y="260" as="sourcePoint" />
            <mxPoint x="440" y="210" as="targetPoint" />
          </mxGeometry>
        </mxCell>
        <mxCell id="gDEl19BG6VwAShqC3G5s-16" value="parent" style="rhombus;whiteSpace=wrap;html=1;" parent="1" vertex="1">
          <mxGeometry x="150" y="140" width="50" height="30" as="geometry" />
        </mxCell>
        <mxCell id="gDEl19BG6VwAShqC3G5s-17" value="" style="endArrow=classic;html=1;rounded=0;exitX=0.5;exitY=0;exitDx=0;exitDy=0;" parent="1" source="gDEl19BG6VwAShqC3G5s-16" edge="1">
          <mxGeometry width="50" height="50" relative="1" as="geometry">
            <mxPoint x="390" y="260" as="sourcePoint" />
            <mxPoint x="180" y="100" as="targetPoint" />
          </mxGeometry>
        </mxCell>
        <mxCell id="gDEl19BG6VwAShqC3G5s-19" value="AVLNode" style="ellipse;whiteSpace=wrap;html=1;" parent="1" vertex="1">
          <mxGeometry x="150" y="60" width="60" height="40" as="geometry" />
        </mxCell>
        <mxCell id="gDEl19BG6VwAShqC3G5s-20" value="depth" style="whiteSpace=wrap;html=1;aspect=fixed;" parent="1" vertex="1">
          <mxGeometry x="125" y="180" width="30" height="30" as="geometry" />
        </mxCell>
        <mxCell id="gDEl19BG6VwAShqC3G5s-21" value="cnt" style="whiteSpace=wrap;html=1;aspect=fixed;" parent="1" vertex="1">
          <mxGeometry x="165" y="180" width="30" height="30" as="geometry" />
        </mxCell>
        <mxCell id="gDEl19BG6VwAShqC3G5s-23" value="val" style="whiteSpace=wrap;html=1;aspect=fixed;fillColor=#f5f5f5;fontColor=#333333;strokeColor=#666666;" parent="1" vertex="1">
          <mxGeometry x="270" y="475" width="30" height="30" as="geometry" />
        </mxCell>
        <mxCell id="gDEl19BG6VwAShqC3G5s-25" value="cur" style="rhombus;whiteSpace=wrap;html=1;fillColor=#fff2cc;strokeColor=#d6b656;" parent="1" vertex="1">
          <mxGeometry x="510" y="445" width="50" height="30" as="geometry" />
        </mxCell>
        <mxCell id="gDEl19BG6VwAShqC3G5s-28" value="from" style="rhombus;whiteSpace=wrap;html=1;fillColor=#fff2cc;strokeColor=#d6b656;" parent="1" vertex="1">
          <mxGeometry x="509" y="535" width="50" height="30" as="geometry" />
        </mxCell>
        <mxCell id="gDEl19BG6VwAShqC3G5s-29" value="" style="endArrow=classic;html=1;rounded=0;exitX=0;exitY=0.5;exitDx=0;exitDy=0;entryX=1;entryY=0.5;entryDx=0;entryDy=0;fillColor=#fff2cc;strokeColor=#d6b656;" parent="1" source="gDEl19BG6VwAShqC3G5s-28" target="gDEl19BG6VwAShqC3G5s-5" edge="1">
          <mxGeometry width="50" height="50" relative="1" as="geometry">
            <mxPoint x="510" y="510" as="sourcePoint" />
            <mxPoint x="560" y="460" as="targetPoint" />
          </mxGeometry>
        </mxCell>
        <mxCell id="gDEl19BG6VwAShqC3G5s-30" value="" style="endArrow=classic;html=1;rounded=0;entryX=1;entryY=0.5;entryDx=0;entryDy=0;exitX=0;exitY=0.5;exitDx=0;exitDy=0;fillColor=#fff2cc;strokeColor=#d6b656;" parent="1" source="gDEl19BG6VwAShqC3G5s-25" target="gDEl19BG6VwAShqC3G5s-7" edge="1">
          <mxGeometry width="50" height="50" relative="1" as="geometry">
            <mxPoint x="510" y="510" as="sourcePoint" />
            <mxPoint x="560" y="460" as="targetPoint" />
          </mxGeometry>
        </mxCell>
        <mxCell id="gDEl19BG6VwAShqC3G5s-31" value="data" style="rhombus;whiteSpace=wrap;html=1;fillColor=#f5f5f5;fontColor=#333333;strokeColor=#666666;" parent="1" vertex="1">
          <mxGeometry x="220" y="540" width="50" height="30" as="geometry" />
        </mxCell>
        <mxCell id="gDEl19BG6VwAShqC3G5s-32" value="" style="endArrow=classic;html=1;rounded=0;exitX=0.5;exitY=0;exitDx=0;exitDy=0;entryX=0.5;entryY=1;entryDx=0;entryDy=0;fillColor=#f5f5f5;strokeColor=#666666;" parent="1" source="gDEl19BG6VwAShqC3G5s-31" target="gDEl19BG6VwAShqC3G5s-1" edge="1">
          <mxGeometry width="50" height="50" relative="1" as="geometry">
            <mxPoint x="540" y="450" as="sourcePoint" />
            <mxPoint x="440" y="560" as="targetPoint" />
          </mxGeometry>
        </mxCell>
        <mxCell id="gDEl19BG6VwAShqC3G5s-34" value="val" style="whiteSpace=wrap;html=1;aspect=fixed;fillColor=#fff2cc;strokeColor=#d6b656;" parent="1" vertex="1">
          <mxGeometry x="370" y="445" width="30" height="30" as="geometry" />
        </mxCell>
        <mxCell id="gDEl19BG6VwAShqC3G5s-36" value="本来的 container c" style="text;html=1;align=center;verticalAlign=middle;whiteSpace=wrap;rounded=0;" parent="1" vertex="1">
          <mxGeometry x="350" y="490" width="90" height="30" as="geometry" />
        </mxCell>
        <mxCell id="gDEl19BG6VwAShqC3G5s-37" value="为需要被 add的val而创建的 Data" style="text;html=1;align=center;verticalAlign=middle;whiteSpace=wrap;rounded=0;" parent="1" vertex="1">
          <mxGeometry x="150" y="540" width="70" height="30" as="geometry" />
        </mxCell>
        <mxCell id="gDEl19BG6VwAShqC3G5s-39" value="" style="rounded=0;whiteSpace=wrap;html=1;fillColor=#fff2cc;strokeColor=#d6b656;" parent="1" vertex="1">
          <mxGeometry x="590" y="430" width="120" height="60" as="geometry" />
        </mxCell>
        <mxCell id="gDEl19BG6VwAShqC3G5s-40" value="Container" style="rounded=0;whiteSpace=wrap;html=1;align=left;fillColor=#fff2cc;strokeColor=#d6b656;" parent="1" vertex="1">
          <mxGeometry x="580" y="520" width="120" height="60" as="geometry" />
        </mxCell>
        <mxCell id="gDEl19BG6VwAShqC3G5s-41" value="root" style="rhombus;whiteSpace=wrap;html=1;fillColor=#fff2cc;strokeColor=#d6b656;" parent="1" vertex="1">
          <mxGeometry x="640" y="535" width="40" height="35" as="geometry" />
        </mxCell>
        <mxCell id="gDEl19BG6VwAShqC3G5s-42" value="" style="endArrow=classic;html=1;rounded=0;exitX=0.5;exitY=0;exitDx=0;exitDy=0;fillColor=#fff2cc;strokeColor=#d6b656;" parent="1" source="gDEl19BG6VwAShqC3G5s-41" edge="1">
          <mxGeometry width="50" height="50" relative="1" as="geometry">
            <mxPoint x="700" y="700" as="sourcePoint" />
            <mxPoint x="665" y="480" as="targetPoint" />
          </mxGeometry>
        </mxCell>
        <mxCell id="gDEl19BG6VwAShqC3G5s-43" value="AVLNode" style="ellipse;whiteSpace=wrap;html=1;fillColor=#fff2cc;strokeColor=#d6b656;" parent="1" vertex="1">
          <mxGeometry x="635" y="440" width="60" height="40" as="geometry" />
        </mxCell>
        <mxCell id="gDEl19BG6VwAShqC3G5s-48" value="val" style="whiteSpace=wrap;html=1;aspect=fixed;fillColor=#fff2cc;strokeColor=#d6b656;" parent="1" vertex="1">
          <mxGeometry x="600" y="445" width="30" height="30" as="geometry" />
        </mxCell>
        <mxCell id="gDEl19BG6VwAShqC3G5s-53" value="" style="endArrow=classic;startArrow=classic;html=1;rounded=0;exitX=1;exitY=0.5;exitDx=0;exitDy=0;entryX=0;entryY=0.5;entryDx=0;entryDy=0;" parent="1" source="gDEl19BG6VwAShqC3G5s-23" target="gDEl19BG6VwAShqC3G5s-33" edge="1">
          <mxGeometry width="50" height="50" relative="1" as="geometry">
            <mxPoint x="490" y="590" as="sourcePoint" />
            <mxPoint x="540" y="540" as="targetPoint" />
          </mxGeometry>
        </mxCell>
        <mxCell id="gDEl19BG6VwAShqC3G5s-54" value="compared" style="edgeLabel;html=1;align=center;verticalAlign=middle;resizable=0;points=[];" parent="gDEl19BG6VwAShqC3G5s-53" vertex="1" connectable="0">
          <mxGeometry x="0.1212" y="3" relative="1" as="geometry">
            <mxPoint as="offset" />
          </mxGeometry>
        </mxCell>
        <mxCell id="gDEl19BG6VwAShqC3G5s-57" value="cur" style="rhombus;whiteSpace=wrap;html=1;fillColor=#f8cecc;strokeColor=#b85450;" parent="1" vertex="1">
          <mxGeometry x="750" y="445" width="50" height="30" as="geometry" />
        </mxCell>
        <mxCell id="gDEl19BG6VwAShqC3G5s-61" value="" style="endArrow=classic;html=1;rounded=0;entryX=1;entryY=0.5;entryDx=0;entryDy=0;exitX=0;exitY=0.5;exitDx=0;exitDy=0;fillColor=#f8cecc;strokeColor=#b85450;" parent="1" source="gDEl19BG6VwAShqC3G5s-57" target="gDEl19BG6VwAShqC3G5s-43" edge="1">
          <mxGeometry width="50" height="50" relative="1" as="geometry">
            <mxPoint x="790" y="600" as="sourcePoint" />
            <mxPoint x="840" y="550" as="targetPoint" />
          </mxGeometry>
        </mxCell>
        <mxCell id="ayivsai2Q-AA8QJLshIy-1" value="left" style="rhombus;whiteSpace=wrap;html=1;fillColor=#fff2cc;strokeColor=#d6b656;" vertex="1" parent="1">
          <mxGeometry x="435" y="440" width="35" height="20" as="geometry" />
        </mxCell>
        <mxCell id="ayivsai2Q-AA8QJLshIy-3" value="from" style="rhombus;whiteSpace=wrap;html=1;fillColor=#f8cecc;strokeColor=#b85450;" vertex="1" parent="1">
          <mxGeometry x="427.5" y="390" width="50" height="30" as="geometry" />
        </mxCell>
        <mxCell id="ayivsai2Q-AA8QJLshIy-4" value="" style="endArrow=classic;html=1;rounded=0;exitX=0.452;exitY=1.001;exitDx=0;exitDy=0;entryX=0.07;entryY=0.555;entryDx=0;entryDy=0;entryPerimeter=0;fillColor=#f8cecc;strokeColor=#b85450;exitPerimeter=0;" edge="1" parent="1" source="ayivsai2Q-AA8QJLshIy-3" target="ayivsai2Q-AA8QJLshIy-1">
          <mxGeometry width="50" height="50" relative="1" as="geometry">
            <mxPoint x="550" y="490" as="sourcePoint" />
            <mxPoint x="600" y="440" as="targetPoint" />
          </mxGeometry>
        </mxCell>
        <mxCell id="ayivsai2Q-AA8QJLshIy-5" value="" style="endArrow=classic;html=1;rounded=0;exitX=0.944;exitY=0.524;exitDx=0;exitDy=0;exitPerimeter=0;entryX=0.5;entryY=0;entryDx=0;entryDy=0;fillColor=#fff2cc;strokeColor=#d6b656;" edge="1" parent="1" source="ayivsai2Q-AA8QJLshIy-1" target="gDEl19BG6VwAShqC3G5s-43">
          <mxGeometry width="50" height="50" relative="1" as="geometry">
            <mxPoint x="410" y="480" as="sourcePoint" />
            <mxPoint x="540" y="360" as="targetPoint" />
            <Array as="points">
              <mxPoint x="550" y="390" />
            </Array>
          </mxGeometry>
        </mxCell>
      </root>
    </mxGraphModel>
  </diagram>
</mxfile>
